<svg xmlns="http://www.w3.org/2000/svg" viewBox="0 0 100 140" width="100" height="140" fill="none">
  <defs>
    <radialGradient id="cardamomGrad" cx="40%" cy="30%" r="70%">
      <stop offset="0%" stop-color="#86EFAC"/>
      <stop offset="35%" stop-color="#22C55E"/>
      <stop offset="75%" stop-color="#15803D"/>
      <stop offset="100%" stop-color="#14532D"/>
    </radialGradient>
    <filter id="shadow" x="-20%" y="-20%" width="140%" height="140%">
      <feDropShadow dx="2" dy="8" stdDeviation="6" flood-color="#052010" flood-opacity="0.6"/>
    </filter>
  </defs>
  <!-- Cardamom Pod Body with 3D drop shadow -->
  <path d="M50 8 C68 25, 82 55, 80 88 C78 115, 62 132, 50 135 C38 132, 22 115, 20 88 C18 55, 32 25, 50 8 Z" 
        fill="url(#cardamomGrad)" filter="url(#shadow)"/>
  <!-- Pod Ridges / Ribs -->
  <path d="M50 8 Q52 70 50 135" stroke="#BBF7D0" stroke-width="2.5" stroke-linecap="round" opacity="0.75"/>
  <path d="M50 8 Q65 65 62 130" stroke="#86EFAC" stroke-width="1.8" stroke-linecap="round" opacity="0.6"/>
  <path d="M50 8 Q35 65 38 130" stroke="#166534" stroke-width="2" stroke-linecap="round" opacity="0.7"/>
  <!-- Top Stem Tip -->
  <path d="M50 8 C48 3, 52 0, 50 -2" stroke="#14532D" stroke-width="3" stroke-linecap="round"/>
</svg>
